<svg width="128" height="128" viewBox="0 0 128 128" fill="none" xmlns="http://www.w3.org/2000/svg">
<path fill-rule="evenodd" clip-rule="evenodd" d="M64.9969 14.0669C64.3799 13.7124 63.621 13.7124 63.004 14.0669L21.402 37.9715C20.7812 38.3283 20.3984 38.9896 20.3984 39.7056V87.9605C20.3984 88.6723 20.7767 89.3304 21.3918 89.6887L62.9989 113.924C63.6212 114.286 64.3902 114.286 65.0124 113.924L106.609 89.6886C107.224 89.3303 107.602 88.6722 107.602 87.9605V39.7056C107.602 38.9896 107.22 38.3283 106.599 37.9715L64.9969 14.0669ZM32.2223 47.7018L24.3984 43.1739V84.4975L32.2246 79.9821C33.1813 79.4301 34.4044 79.7582 34.9564 80.7149C35.5084 81.6716 35.1803 82.8947 34.2236 83.4467L26.3862 87.9687L62.0056 108.716V99.5652C62.0056 98.4606 62.901 97.5652 64.0056 97.5652C65.1101 97.5652 66.0056 98.4606 66.0056 99.5652V108.716L101.61 87.972L93.7417 83.4483C92.7841 82.8977 92.4542 81.6751 93.0047 80.7175C93.5553 79.76 94.7778 79.43 95.7354 79.9806L103.602 84.5036V43.1741L95.7411 47.7242C94.7851 48.2775 93.5615 47.9511 93.0082 46.9951C92.4549 46.0391 92.7813 44.8155 93.7373 44.2622L101.599 39.7119L66.0004 19.2569V28.333C66.0004 29.4376 65.105 30.333 64.0004 30.333C62.8959 30.333 62.0004 29.4376 62.0004 28.333V19.2569L26.402 39.7118L34.2259 44.2397C35.1819 44.793 35.5084 46.0165 34.9551 46.9725C34.4018 47.9286 33.1783 48.255 32.2223 47.7018ZM53.9995 55.7334C53.0428 55.1814 51.8197 55.5094 51.2676 56.4661C50.7156 57.4229 51.0436 58.646 52.0003 59.198L61.9914 64.9632V76.4924C61.9914 77.5969 62.8869 78.4924 63.9914 78.4924C65.096 78.4924 65.9914 77.5969 65.9914 76.4924V64.9632L75.9826 59.198C76.9393 58.646 77.2673 57.4229 76.7153 56.4661C76.1632 55.5094 74.9401 55.1814 73.9834 55.7334L63.9914 61.4991L53.9995 55.7334Z" fill="#141414"/>
</svg>
