<svg width="128" height="128" viewBox="0 0 128 128" fill="none" xmlns="http://www.w3.org/2000/svg">
<path fill-rule="evenodd" clip-rule="evenodd" d="M17.1455 94.6756V38.0368C20.5102 33.3465 26.5795 29.9395 38.8297 29.9395C51.0784 29.9395 57.1477 33.3456 60.5127 38.0351V94.6746C55.9384 90.7473 49.0929 88.4658 38.8297 88.4658C28.5656 88.4658 21.7198 90.7478 17.1455 94.6756ZM64.5127 94.6767V38.0386C67.8772 33.3473 73.9465 29.9395 86.1981 29.9395C98.4483 29.9395 104.518 33.3465 107.882 38.0368V94.6756C103.308 90.7478 96.4623 88.4658 86.1981 88.4658C75.9331 88.4658 69.087 90.7482 64.5127 94.6767ZM63.2796 101.787C63.123 101.852 62.9564 101.898 62.7828 101.921C62.6945 101.933 62.6048 101.939 62.5144 101.939C62.4957 101.939 62.477 101.939 62.4584 101.939C61.7627 101.92 61.1556 101.546 60.8119 100.992C57.5107 96.082 51.4504 92.4658 38.8297 92.4658C26.1606 92.4658 20.1023 96.1098 16.8096 101.049C16.3207 101.782 15.4095 102.109 14.5659 101.854C13.7224 101.598 13.1455 100.821 13.1455 99.9395V37.4131C13.1455 37.0183 13.2624 36.6323 13.4814 36.3037C17.7677 29.8744 25.3515 25.9395 38.8297 25.9395C50.7133 25.9395 58.0148 28.9984 62.5139 34.1289C67.0131 28.9984 74.3145 25.9395 86.1981 25.9395C99.6763 25.9395 107.26 29.8744 111.546 36.3037C111.765 36.6323 111.882 37.0183 111.882 37.4131V99.9395C111.882 100.821 111.305 101.598 110.462 101.854C109.618 102.109 108.707 101.782 108.218 101.049C104.926 96.1098 98.8673 92.4658 86.1981 92.4658C73.529 92.4658 67.4707 96.1098 64.178 101.049C63.955 101.383 63.6404 101.638 63.2796 101.787ZM83.9588 78.939H88.3079V52.7901H83.9588V78.939ZM83.9044 41.6455V48.3866H88.3622V41.6455H83.9044Z" fill="white"/>
</svg>
