<svg width="128" height="128" viewBox="0 0 128 128" fill="none" xmlns="http://www.w3.org/2000/svg">
<path fill-rule="evenodd" clip-rule="evenodd" d="M10.5491 64C10.5491 34.7289 34.278 11 63.5491 11C92.8202 11 116.549 34.7289 116.549 64C116.549 93.2711 92.8202 117 63.5491 117C34.278 117 10.5491 93.2711 10.5491 64ZM63.5491 7C32.0688 7 6.54907 32.5198 6.54907 64C6.54907 95.4802 32.0688 121 63.5491 121C95.0293 121 120.549 95.4802 120.549 64C120.549 32.5198 95.0293 7 63.5491 7ZM59.5492 96.504H66.9092V85.004H59.5492V96.504ZM60.4692 77.276H65.9892L66.9092 31H59.5492L60.4692 77.276Z" fill="#141414"/>
</svg>
